<?xml version="1.0" standalone="no"?>
<!DOCTYPE svg PUBLIC "-//W3C//DTD SVG 20010904//EN"
 "http://www.w3.org/TR/2001/REC-SVG-20010904/DTD/svg10.dtd">
<svg version="1.0" xmlns="http://www.w3.org/2000/svg"
 width="2048.000000pt" height="2048.000000pt" viewBox="0 0 2048.000000 2048.000000"
 preserveAspectRatio="xMidYMid meet">
<metadata>
Created by potrace 1.14, written by Peter Selinger 2001-2017
</metadata>
<g transform="translate(0.000000,2048.000000) scale(0.100000,-0.100000)"
fill="#000000" stroke="none">
<path d="M9805 15965 c-323 -53 -606 -202 -831 -437 -49 -52 -112 -127 -140
-168 -57 -84 -6148 -10630 -6142 -10635 2 -2 172 20 378 50 2005 287 4294 499
6270 580 1234 50 2527 52 3540 5 1971 -93 3554 -357 4704 -786 109 -41 201
-72 204 -70 8 9 -285 220 -558 401 -1607 1067 -3575 1878 -5530 2280 -1140
234 -2334 340 -3440 305 -223 -7 -450 -15 -505 -19 -55 -4 -101 -7 -102 -7 -5
2 2373 4115 2379 4113 4 -1 396 -675 871 -1497 474 -822 866 -1500 870 -1507
5 -8 -15 -15 -65 -23 -366 -60 -735 -153 -1173 -297 -288 -95 -722 -259 -712
-269 2 -2 28 1 58 6 177 34 626 32 1059 -6 1398 -121 2911 -482 4047 -968 568
-242 1037 -506 1444 -813 77 -58 142 -103 145 -101 5 6 -5256 9121 -5323 9223
-210 320 -540 544 -921 626 -129 27 -399 35 -527 14z"/>
</g>
</svg>
